HIERARCHY
ROOT SpineBase
{
  OFFSET 0.000000 0.000000 0.000000
  CHANNELS 6 Xposition Yposition Zposition Zrotation Xrotation Yrotation
  JOINT SpineMid
  {
    OFFSET 0.000000 28.399671 0.000000
    CHANNELS 3 Zrotation Xrotation Yrotation
    JOINT SpineShoulder
    {
      OFFSET -0.032885 21.029335 -0.719000
      CHANNELS 3 Zrotation Xrotation Yrotation
      JOINT Neck
      {
        OFFSET -0.075928 6.977934 -0.552808
        CHANNELS 3 Zrotation Xrotation Yrotation
        JOINT Head
        {
          OFFSET -2.430470 11.453515 -0.081480
          CHANNELS 3 Zrotation Xrotation Yrotation
          End Site
          {
            OFFSET 0 0 0
          }
        }
      }
      JOINT ShoulderLeft
      {
        OFFSET -15.959708 -2.714263 5.110094
        CHANNELS 3 Zrotation Xrotation Yrotation
        JOINT ElbowLeft
        {
          OFFSET -3.469064 -26.014004 2.385742
          CHANNELS 3 Zrotation Xrotation Yrotation
          JOINT WristLeft
          {
            OFFSET -2.886859 -20.373358 -3.573759
            CHANNELS 3 Zrotation Xrotation Yrotation
            JOINT HandLeft
            {
              OFFSET 0.623506 -7.125523 -2.536251
              CHANNELS 3 Zrotation Xrotation Yrotation
              JOINT HandTipLeft
              {
                OFFSET 0.395272 -6.488812 -0.959652
                CHANNELS 3 Zrotation Xrotation Yrotation
                End Site
                {
                  OFFSET 0 0 0
                }
              }
              JOINT ThumbLeft
              {
                OFFSET 3.481554 -0.172506 -2.364499
                CHANNELS 3 Zrotation Xrotation Yrotation
                End Site
                {
                  OFFSET 0 0 0
                }
              }
            }
          }
        }
      }
      JOINT ShoulderRight
      {
        OFFSET 15.049775 -1.709135 -5.154910
        CHANNELS 3 Zrotation Xrotation Yrotation
        JOINT ElbowRight
        {
          OFFSET 7.018147 -26.863348 -2.791010
          CHANNELS 3 Zrotation Xrotation Yrotation
          JOINT WristRight
          {
            OFFSET 1.623119 -20.463684 -4.982468
            CHANNELS 3 Zrotation Xrotation Yrotation
            JOINT HandRight
            {
              OFFSET -1.001885 -7.358708 -1.719547
              CHANNELS 3 Zrotation Xrotation Yrotation
              JOINT HandTipRight
              {
                OFFSET -0.190783 -6.324771 -0.813515
                CHANNELS 3 Zrotation Xrotation Yrotation
                End Site
                {
                  OFFSET 0 0 0
                }
              }
              JOINT ThumbRight
              {
                OFFSET -3.566596 1.244484 -0.118602
                CHANNELS 3 Zrotation Xrotation Yrotation
                End Site
                {
                  OFFSET 0 0 0
                }
              }
            }
          }
        }
      }
    }
  }
  JOINT HipLeft
  {
    OFFSET -5.860012 0.426420 -2.001724
    CHANNELS 3 Zrotation Xrotation Yrotation
    JOINT KneeLeft
    {
      OFFSET -7.867867 -28.929752 3.096867
      CHANNELS 3 Zrotation Xrotation Yrotation
      JOINT AnkleLeft
      {
        OFFSET -2.699081 -41.273158 6.305264
        CHANNELS 3 Zrotation Xrotation Yrotation
        JOINT FootLeft
        {
          OFFSET -3.148731 -8.134817 -4.091491
          CHANNELS 3 Zrotation Xrotation Yrotation
          End Site
          {
            OFFSET 0 0 0
          }
        }
      }
    }
  }
  JOINT HipRight
  {
    OFFSET 5.273425 0.849030 -4.673466
    CHANNELS 3 Zrotation Xrotation Yrotation
    JOINT KneeRight
    {
      OFFSET 6.582933 -27.549684 1.557724
      CHANNELS 3 Zrotation Xrotation Yrotation
      JOINT AnkleRight
      {
        OFFSET 2.209263 -38.108127 7.897617
        CHANNELS 3 Zrotation Xrotation Yrotation
        JOINT FootRight
        {
          OFFSET -2.617904 -5.764804 -9.144966
          CHANNELS 3 Zrotation Xrotation Yrotation
          End Site
          {
            OFFSET 0 0 0
          }
        }
      }
    }
  }
}
MOTION
Frames: 7
Frame Time: 0.033333
29.389657 82.950660 374.508146 0.754367 3.341274 28.127615 0.158836 -0.402943 -28.095694 0.101272 0.075199 0.088345 4.270909 6.617740 1.769964 0.000000 0.000000 0.000000 -5.795400 -6.904643 -0.476462 -2.246946 8.360025 1.016058 -9.198427 -1.784794 4.810426 1.866483 17.727690 -0.195847 0.000000 0.000000 0.000000 0.000000 0.000000 0.000000 -153.631340 55.677087 -178.455957 -29.982624 47.756389 -88.764058 -11.030481 -4.112515 -40.856455 -32.531201 -8.657209 -95.608951 0.000000 0.000000 0.000000 0.000000 0.000000 0.000000 4.322872 -3.871275 -27.673295 -5.064150 -3.451617 0.101284 -12.964786 41.517148 -4.897347 0.000000 0.000000 0.000000 -3.371170 -5.968246 -29.086533 1.619254 2.277626 1.101048 -9.868093 13.468735 5.997779 0.000000 0.000000 0.000000
29.403339 83.328328 374.384374 1.063582 3.582824 27.920873 0.412037 -0.375909 -27.874338 0.190050 0.175162 0.124598 1.535394 6.269492 1.800676 0.000000 0.000000 0.000000 -5.763006 -7.515327 -0.458388 -3.068659 9.317697 0.953869 -9.689384 -2.867663 4.857019 3.851679 17.760203 -0.743798 0.000000 0.000000 0.000000 0.000000 0.000000 0.000000 -161.093269 59.279074 -167.374717 -19.130744 39.424979 -72.785747 -19.663851 4.503533 -54.897642 -34.203704 1.187873 -94.089112 0.000000 0.000000 0.000000 0.000000 0.000000 0.000000 3.657722 -4.029277 -27.451644 -4.861196 -3.175749 0.067212 -16.191515 45.210767 -3.341640 0.000000 0.000000 0.000000 -3.987601 -6.175892 -28.986515 1.750568 2.366439 1.142727 -7.407671 9.162121 4.306275 0.000000 0.000000 0.000000
29.476367 83.502773 374.332309 1.572484 3.829126 27.697550 0.690872 -0.317233 -27.637533 0.231845 0.251509 0.164903 -1.015241 5.826239 1.756710 0.000000 0.000000 0.000000 -5.100277 -7.162805 -0.407066 -4.421751 8.935013 0.842469 -11.874418 -5.543665 4.888728 6.275626 21.484108 -0.859608 0.000000 0.000000 0.000000 0.000000 0.000000 0.000000 -170.269342 62.409095 -155.119223 -11.003994 29.511197 -58.783154 -14.490494 14.567447 -50.674287 -29.903733 12.161134 -59.749091 0.000000 0.000000 0.000000 0.000000 0.000000 0.000000 2.665883 -4.026173 -27.265024 -4.451986 -2.915751 0.061029 -16.582756 44.954234 -3.025061 0.000000 0.000000 0.000000 -4.685991 -6.018562 -28.801214 2.036261 2.208169 1.143077 -4.179002 2.699088 2.110047 0.000000 0.000000 0.000000
29.563193 83.414352 374.352669 2.153314 4.056539 27.523582 0.965568 -0.238714 -27.454525 0.234182 0.288555 0.203243 -3.059811 5.377456 1.662977 0.000000 0.000000 0.000000 -4.016231 -5.929074 -0.382875 -6.922578 7.309600 0.906154 -13.000119 -7.219133 4.849356 9.646917 22.796465 -1.779476 0.000000 0.000000 0.000000 0.000000 0.000000 0.000000 -179.685102 64.633391 -143.478178 -6.057107 20.239085 -48.275411 -0.648300 21.691587 -38.472286 -1.505428 23.400180 64.950241 0.000000 0.000000 0.000000 0.000000 0.000000 0.000000 1.676707 -3.902757 -27.161462 -4.024691 -2.807764 0.086475 -13.618638 38.577224 -3.796181 0.000000 0.000000 0.000000 -5.232209 -5.733854 -28.602340 2.111224 1.778721 1.092651 -0.622254 -6.577201 0.879984 0.000000 0.000000 0.000000
29.608444 83.159195 374.368585 2.695839 4.349351 27.968316 1.193196 -0.217391 -27.893999 0.192650 0.257182 0.235265 -4.284134 4.950252 1.552911 0.000000 0.000000 0.000000 -2.893747 -4.565220 -0.397427 -9.465707 5.180683 0.936855 -12.484116 -9.155693 4.253198 9.721496 24.396974 -1.661714 0.000000 0.000000 0.000000 0.000000 0.000000 0.000000 172.085359 65.906033 -133.730518 -2.812621 12.156448 -40.299258 23.117087 23.701513 -15.383051 8.031360 13.383474 64.246810 0.000000 0.000000 0.000000 0.000000 0.000000 0.000000 0.702267 -3.894865 -27.663749 -3.736294 -2.731104 0.091514 -13.506591 36.691722 -3.391059 0.000000 0.000000 0.000000 -5.975462 -5.997587 -29.165836 1.773085 2.266459 1.119710 5.512384 -17.483737 -3.829905 0.000000 0.000000 0.000000
29.625439 82.807834 374.412753 3.202587 4.490434 27.967450 1.348087 -0.096864 -27.898941 0.090883 0.217215 0.252873 -4.628131 4.643551 1.472370 0.000000 0.000000 0.000000 -1.894245 -3.261115 -0.448951 -11.556420 2.749401 0.913784 -12.331660 -10.513003 3.813630 8.588284 26.842267 -0.885881 0.000000 0.000000 0.000000 0.000000 0.000000 0.000000 165.862068 66.739708 -126.645767 0.441541 6.316955 -33.829647 37.426584 17.782395 3.009199 3.682868 8.437738 42.716080 0.000000 0.000000 0.000000 0.000000 0.000000 0.000000 -0.025078 -3.834068 -27.690232 -3.588374 -2.731033 0.082467 -12.644378 33.276480 -3.094305 0.000000 0.000000 0.000000 -6.441445 -5.819866 -29.168063 1.799656 2.218509 1.110662 8.235566 -22.786376 -6.165098 0.000000 0.000000 0.000000
29.620541 82.438921 374.469330 3.645442 4.619907 27.484408 1.341123 0.032081 -27.431910 -0.070165 0.161978 0.253524 -4.574211 4.508820 1.447045 0.000000 0.000000 0.000000 -1.062326 -2.209826 -0.505569 -12.929343 0.411172 0.854533 -12.883783 -10.760540 3.786030 9.567217 26.923250 -1.297192 0.000000 0.000000 0.000000 0.000000 0.000000 0.000000 158.415038 67.206643 -117.783793 1.051181 4.170866 -31.836216 46.899292 10.560096 20.241808 1.933621 11.379143 27.559975 0.000000 0.000000 0.000000 0.000000 0.000000 0.000000 -0.560180 -3.865307 -27.203184 -3.554145 -2.704420 0.055632 -9.197522 25.627668 -3.372197 0.000000 0.000000 0.000000 -6.822706 -5.800589 -28.708615 1.928134 2.347136 1.140551 7.912448 -21.781619 -6.665224 0.000000 0.000000 0.000000
